<?xml version="1.0" encoding="UTF-8" standalone="no"?>
<!-- Created with Inkscape (http://www.inkscape.org/) -->

<svg
   xmlns:dc="http://purl.org/dc/elements/1.1/"
   xmlns:cc="http://creativecommons.org/ns#"
   xmlns:rdf="http://www.w3.org/1999/02/22-rdf-syntax-ns#"
   xmlns:svg="http://www.w3.org/2000/svg"
   xmlns="http://www.w3.org/2000/svg"
   xmlns:sodipodi="http://sodipodi.sourceforge.net/DTD/sodipodi-0.dtd"
   xmlns:inkscape="http://www.inkscape.org/namespaces/inkscape"
   width="115.04037"
   height="24.375"
   id="svg3173"
   version="1.1"
   inkscape:version="0.48.4 r9939"
   sodipodi:docname="Neues Dokument 2">
  <defs
     id="defs3175" />
  <sodipodi:namedview
     id="base"
     pagecolor="#ffffff"
     bordercolor="#666666"
     borderopacity="1.0"
     inkscape:pageopacity="0.0"
     inkscape:pageshadow="2"
     inkscape:zoom="0.35"
     inkscape:cx="190.37735"
     inkscape:cy="-44.955353"
     inkscape:document-units="px"
     inkscape:current-layer="layer1"
     showgrid="false"
     fit-margin-top="0"
     fit-margin-left="0"
     fit-margin-right="0"
     fit-margin-bottom="0"
     inkscape:window-width="1551"
     inkscape:window-height="876"
     inkscape:window-x="49"
     inkscape:window-y="24"
     inkscape:window-maximized="1" />
  <metadata
     id="metadata3178">
    <rdf:RDF>
      <cc:Work
         rdf:about="">
        <dc:format>image/svg+xml</dc:format>
        <dc:type
           rdf:resource="http://purl.org/dc/dcmitype/StillImage" />
        <dc:title></dc:title>
      </cc:Work>
    </rdf:RDF>
  </metadata>
  <g
     inkscape:label="Ebene 1"
     inkscape:groupmode="layer"
     id="layer1"
     transform="translate(-159.62265,-463.03183)">
    <g
       transform="translate(-1738.7156,542.23813)"
       id="g3880"
       inkscape:export-filename="/home/nick/git/openetcs.github.com/images/logos/openetcs.png"
       inkscape:export-xdpi="90"
       inkscape:export-ydpi="90">
      <g
         transform="translate(-428.12015,95.5)"
         id="text3822"
         style="font-size:21.1280899px;font-style:normal;font-variant:normal;font-weight:normal;font-stretch:normal;text-align:start;line-height:125%;letter-spacing:0px;word-spacing:0px;writing-mode:lr-tb;text-anchor:start;fill:#2c548e;fill-opacity:1;stroke:none;font-family:Maven Pro;-inkscape-font-specification:Maven Pro">
        <path
           style="fill:#2c548e;fill-opacity:1"
           inkscape:connector-curvature="0"
           id="path3855"
           d="m 2331.4023,-168.45382 c -2.2607,0 -4.9439,0.95077 -4.9439,5.45105 0,4.50028 2.6832,5.45105 4.9439,5.45105 2.2607,0 4.9651,-0.95077 4.9651,-5.45105 0,-4.50028 -2.7044,-5.45105 -4.9651,-5.45105 m 0,9.50764 c -2.3874,0 -3.4227,-1.22543 -3.4227,-4.05659 0,-2.83116 1.0353,-4.05659 3.4227,-4.05659 2.4086,0 3.4439,1.22543 3.4439,4.05659 0,2.83116 -1.0353,4.05659 -3.4439,4.05659" />
        <path
           style="fill:#2c548e;fill-opacity:1"
           inkscape:connector-curvature="0"
           id="path3857"
           d="m 2343.1651,-168.45382 c -4.0144,0 -4.3313,2.5565 -4.3313,3.33824 l 0,11.30353 1.5212,0 0,-4.14111 c 0.8452,0.25354 1.7114,0.40144 2.6199,0.40144 2.1973,0 4.8172,-0.90852 4.8172,-5.30315 0,-4.85946 -2.8945,-5.59895 -4.627,-5.59895 m -0.1902,9.48651 c -0.9085,0 -1.7959,-0.16902 -2.6199,-0.5282 l 0,-5.68345 c 0,-1.24656 0.9508,-1.8804 2.8101,-1.8804 1.331,0 3.1058,0.44369 3.1058,4.18336 0,2.74665 -0.9719,3.90869 -3.296,3.90869" />
        <path
           style="fill:#2c548e;fill-opacity:1"
           inkscape:connector-curvature="0"
           id="path3859"
           d="m 2354.8615,-168.45382 c -4.7961,0 -4.6271,4.47916 -4.6271,5.59895 0,4.39463 2.6199,5.30315 4.8172,5.30315 1.5001,0 2.7467,-0.25354 3.7608,-0.73949 l 0,-1.56348 c -0.8874,0.52821 -2.0705,0.78174 -3.6129,0.78174 -2.1762,0 -3.2326,-0.90851 -3.4227,-3.02131 l 7.6906,0 c 0,0 0.042,-0.33805 0.042,-0.73949 0,-0.40143 0.1479,-5.62007 -4.6481,-5.62007 m -3.0847,5.00736 c 0.1479,-2.59875 1.0141,-3.57065 3.0847,-3.57065 2.9156,0 3.0847,3.06358 3.0847,3.57065 l -6.1694,0" />
        <path
           style="fill:#2c548e;fill-opacity:1"
           inkscape:connector-curvature="0"
           id="path3861"
           d="m 2366.5658,-168.45382 c -2.1974,0 -3.951,0.78174 -4.4581,1.03528 l 0,9.69779 1.5213,0 0,-8.78928 c 0.7183,-0.21128 1.6902,-0.42257 2.7677,-0.42257 2.5354,0 2.8312,1.3522 2.8312,2.34522 l 0,6.86663 1.5212,0 0,-6.86663 c 0,-2.45085 -1.5212,-3.86644 -4.1833,-3.86644" />
      </g>
      <text
         sodipodi:linespacing="125%"
         id="text3826"
         y="-62.346283"
         x="1947.7432"
         style="font-size:15.69162464px;font-style:normal;font-variant:normal;font-weight:normal;font-stretch:normal;text-align:start;line-height:125%;letter-spacing:0px;word-spacing:0px;writing-mode:lr-tb;text-anchor:start;fill:#2c548e;fill-opacity:1;stroke:none;font-family:Maven Pro;-inkscape-font-specification:Maven Pro"
         xml:space="preserve"><tspan
           y="-62.346283"
           x="1947.7432"
           id="tspan3828"
           sodipodi:role="line">ETCS</tspan></text>
      <g
         transform="translate(-420.99998,95.5)"
         id="g3863">
        <path
           inkscape:connector-curvature="0"
           id="path3832-9"
           d="m 2434.3786,-162.5187 c 0,-6.7174 -5.4702,-12.1876 -12.1875,-12.1876 -6.7173,0 -12.1875,5.4702 -12.1875,12.1876 0,6.7173 5.4702,12.1874 12.1875,12.1874 6.7173,0 12.1875,-5.4701 12.1875,-12.1874 z m -3,0 c 0,5.096 -4.0915,9.1874 -9.1875,9.1874 -5.096,0 -9.1875,-4.0914 -9.1875,-9.1874 0,-5.0961 4.0915,-9.1876 9.1875,-9.1876 5.096,0 9.1875,4.0915 9.1875,9.1876 z"
           style="font-size:medium;font-style:normal;font-variant:normal;font-weight:normal;font-stretch:normal;text-indent:0;text-align:start;text-decoration:none;line-height:normal;letter-spacing:normal;word-spacing:normal;text-transform:none;direction:ltr;block-progression:tb;writing-mode:lr-tb;text-anchor:start;baseline-shift:baseline;color:#000000;fill:#8bacdb;fill-opacity:1;stroke:none;stroke-width:3;marker:none;visibility:visible;display:inline;overflow:visible;enable-background:accumulate;font-family:Sans;-inkscape-font-specification:Sans" />
        <g
           style="fill:#698e2c;fill-opacity:1"
           id="g3901">
          <path
             style="font-size:medium;font-style:normal;font-variant:normal;font-weight:normal;font-stretch:normal;text-indent:0;text-align:start;text-decoration:none;line-height:normal;letter-spacing:normal;word-spacing:normal;text-transform:none;direction:ltr;block-progression:tb;writing-mode:lr-tb;text-anchor:start;baseline-shift:baseline;color:#000000;fill:#2c548e;fill-opacity:1;stroke:none;stroke-width:3;marker:none;visibility:visible;display:inline;overflow:visible;enable-background:accumulate;font-family:Sans;-inkscape-font-specification:Sans"
             d="m 2422.1911,-174.7063 c -6.7173,0 -12.1875,5.4702 -12.1875,12.1876 0,6.7173 5.4702,12.1874 12.1875,12.1874 l 0,-3 c -5.096,0 -9.1875,-4.0914 -9.1875,-9.1874 0,-5.0961 4.0915,-9.1876 9.1875,-9.1876 l 0,-3 z"
             id="path3832"
             inkscape:connector-curvature="0" />
          <path
             style="font-size:medium;font-style:normal;font-variant:normal;font-weight:normal;font-stretch:normal;text-indent:0;text-align:start;text-decoration:none;line-height:normal;letter-spacing:normal;word-spacing:normal;text-transform:none;direction:ltr;block-progression:tb;writing-mode:lr-tb;text-anchor:start;baseline-shift:baseline;color:#000000;fill:#2c548e;fill-opacity:1;stroke:none;stroke-width:3;marker:none;visibility:visible;display:inline;overflow:visible;enable-background:accumulate;font-family:Sans;-inkscape-font-specification:Sans"
             d="m 2411.5,-164.03125 0,3 7.375,0 0,-3 -7.375,0 z"
             id="path3852"
             inkscape:connector-curvature="0" />
        </g>
      </g>
    </g>
  </g>
</svg>
